<svg width="22" height="21" viewBox="0 0 22 21" fill="none" xmlns="http://www.w3.org/2000/svg">
<path d="M20.8684 0H1.12131C0.502026 0 0 0.459239 0 1.02574V9.62713C0 10.1936 0.502026 10.6529 1.12131 10.6529H5.17283V19.0898C5.17247 19.3617 5.2903 19.6226 5.50037 19.815C5.71043 20.0074 5.9955 20.1155 6.29276 20.1155H15.6955C16.3148 20.1155 16.8168 19.6563 16.8168 19.0898V10.6566H20.8684C21.1656 10.6566 21.4507 10.5485 21.6608 10.3561C21.8708 10.1637 21.9887 9.90283 21.9883 9.6309V1.02574C21.9887 0.753812 21.8708 0.492908 21.6608 0.300508C21.4507 0.108109 21.1656 0 20.8684 0ZM1.29973 1.19021H10.3443V9.46392H1.29973V1.19021ZM15.5171 18.9266H6.47256V10.6566H15.5171V18.9266ZM20.6886 9.46392H11.644V1.19021H20.6886V9.46392Z" fill="#2D3748"/>
<path d="M7.44599 6.69701C7.70212 6.91689 8.10281 6.91108 8.35118 6.68387C8.59956 6.45667 8.60591 6.09013 8.36554 5.85583L6.289 3.95626C6.03437 3.72552 5.62407 3.72552 5.36944 3.95626L3.28741 5.85583C3.11435 6.0044 3.04347 6.2274 3.10247 6.4377C3.16147 6.648 3.34099 6.81221 3.57088 6.86619C3.80077 6.92016 4.04455 6.85532 4.20696 6.69701L5.82373 5.21803L7.44599 6.69701Z" fill="#2D3748"/>
<path d="M14.5489 6.69701L16.1656 5.21803L17.7824 6.69701C18.0385 6.91689 18.4392 6.91108 18.6876 6.68387C18.936 6.45667 18.9423 6.09013 18.7019 5.85583L16.6254 3.95626C16.3708 3.72552 15.9605 3.72552 15.7059 3.95626L13.6293 5.85583C13.3889 6.09013 13.3953 6.45667 13.6437 6.68387C13.892 6.91108 14.2927 6.91689 14.5489 6.69701Z" fill="#2D3748"/>
<path d="M9.3763 13.4192C9.11981 13.1996 8.71912 13.206 8.47111 13.4335C8.2231 13.6611 8.21734 14.0276 8.45811 14.2616L10.5347 16.1599C10.6565 16.2717 10.8219 16.3345 10.9944 16.3345C11.167 16.3345 11.3324 16.2717 11.4542 16.1599L13.5308 14.2616C13.6953 14.1113 13.7596 13.8922 13.6996 13.6867C13.6396 13.4813 13.4644 13.3207 13.2399 13.2655C13.0154 13.2103 12.7757 13.2689 12.6112 13.4192L10.9944 14.8994L9.3763 13.4192Z" fill="#2D3748"/>
</svg>
