<svg width="83" height="25" viewBox="0 0 83 25" fill="none" xmlns="http://www.w3.org/2000/svg">
<g clip-path="url(#clip0_195_6396)">
<g clip-path="url(#clip1_195_6396)">
<g clip-path="url(#clip2_195_6396)">
<path d="M10.784 9.71148C10.797 9.70391 10.8077 9.69308 10.8152 9.68005C10.8227 9.66703 10.8266 9.65227 10.8266 9.63725C10.8266 9.62223 10.8227 9.60748 10.8152 9.59445C10.8077 9.58143 10.797 9.57059 10.784 9.56303L7.50247 7.6565C7.29251 7.5348 7.05412 7.4707 6.81143 7.4707C6.56874 7.4707 6.33035 7.5348 6.12038 7.6565L2.83951 9.56303C2.82653 9.57059 2.81577 9.58143 2.80829 9.59445C2.80081 9.60748 2.79688 9.62223 2.79688 9.63725C2.79688 9.65227 2.80081 9.66703 2.80829 9.68005C2.81577 9.69308 2.82653 9.70391 2.83951 9.71148L6.76857 12.0228C6.78178 12.0306 6.79684 12.0347 6.81218 12.0347C6.82752 12.0347 6.84258 12.0306 6.85579 12.0228L10.784 9.71148Z" fill="#2D3748"/>
<path d="M2.47266 10.2947C2.45955 10.2872 2.44468 10.2832 2.42955 10.2832C2.41442 10.2832 2.39956 10.2872 2.38648 10.2949C2.3734 10.3025 2.36256 10.3134 2.35506 10.3265C2.34755 10.3397 2.34365 10.3546 2.34375 10.3697V14.1056C2.34408 14.2856 2.39153 14.4625 2.48138 14.6185C2.57124 14.7745 2.70037 14.9042 2.85594 14.9949L6.33985 17.0838C6.3529 17.0913 6.36771 17.0953 6.38279 17.0953C6.39787 17.0953 6.41268 17.0913 6.42574 17.0838C6.43881 17.0763 6.44966 17.0654 6.45721 17.0524C6.46475 17.0393 6.46874 17.0245 6.46875 17.0094V12.675C6.46874 12.6599 6.46476 12.6451 6.45722 12.6321C6.44967 12.619 6.43883 12.6082 6.42578 12.6006L2.47266 10.2947Z" fill="#2D3748"/>
<path d="M7.15625 12.6911V17.0095C7.15627 17.0245 7.16025 17.0393 7.1678 17.0524C7.17535 17.0655 7.1862 17.0763 7.19926 17.0838C7.21232 17.0914 7.22713 17.0953 7.24221 17.0953C7.25729 17.0953 7.2721 17.0913 7.28516 17.0838L10.7688 14.9949C10.9243 14.9044 11.0534 14.7748 11.1433 14.619C11.2331 14.4632 11.2807 14.2866 11.2812 14.1067V10.3708C11.2812 10.3557 11.2772 10.341 11.2696 10.3279C11.2621 10.3149 11.2512 10.3041 11.2381 10.2966C11.2251 10.2891 11.2103 10.2851 11.1952 10.2852C11.1802 10.2852 11.1654 10.2891 11.1523 10.2967L7.19922 12.617C7.1862 12.6245 7.17538 12.6353 7.16784 12.6483C7.1603 12.6613 7.1563 12.6761 7.15625 12.6911V12.6911Z" fill="#2D3748"/>
</g>
<path d="M18.7646 9.83594V14.5332H20.1514C20.861 14.5332 21.3558 14.1833 21.6357 13.4834C21.7887 13.0993 21.8652 12.6419 21.8652 12.1113C21.8652 11.3789 21.7497 10.8174 21.5186 10.4268C21.2907 10.0329 20.835 9.83594 20.1514 9.83594H18.7646ZM20.4053 8.58594C20.8512 8.59245 21.2223 8.64453 21.5186 8.74219C22.0231 8.9082 22.4316 9.21257 22.7441 9.65527C22.9948 10.0133 23.1657 10.4007 23.2568 10.8174C23.348 11.234 23.3936 11.6312 23.3936 12.0088C23.3936 12.9658 23.2015 13.7764 22.8174 14.4404C22.2965 15.3356 21.4925 15.7832 20.4053 15.7832H17.3047V8.58594H20.4053ZM26.499 13.0635H28.3252L27.4268 10.2314L26.499 13.0635ZM26.5918 8.58594H28.291L30.8398 15.7832H29.209L28.7451 14.3037H26.0938L25.5957 15.7832H24.0234L26.5918 8.58594ZM32.8467 13.5615C32.8923 13.8903 32.9818 14.1361 33.1152 14.2988C33.3594 14.5951 33.7777 14.7432 34.3701 14.7432C34.7249 14.7432 35.013 14.7041 35.2344 14.626C35.6543 14.4762 35.8643 14.1979 35.8643 13.791C35.8643 13.5534 35.7601 13.3695 35.5518 13.2393C35.3434 13.1123 35.0163 13 34.5703 12.9023L33.8086 12.7314C33.0599 12.5622 32.5423 12.3783 32.2559 12.1797C31.7708 11.8477 31.5283 11.3285 31.5283 10.6221C31.5283 9.97754 31.7627 9.44206 32.2314 9.01562C32.7002 8.58919 33.3887 8.37598 34.2969 8.37598C35.0553 8.37598 35.7015 8.5778 36.2354 8.98145C36.7725 9.38184 37.054 9.96452 37.0801 10.7295H35.6348C35.6087 10.2965 35.4199 9.98893 35.0684 9.80664C34.834 9.6862 34.5426 9.62598 34.1943 9.62598C33.807 9.62598 33.4977 9.7041 33.2666 9.86035C33.0355 10.0166 32.9199 10.2347 32.9199 10.5146C32.9199 10.7718 33.0339 10.9639 33.2617 11.0908C33.4082 11.1755 33.7207 11.2747 34.1992 11.3887L35.4395 11.6865C35.9831 11.8167 36.3932 11.9909 36.6699 12.209C37.0996 12.5475 37.3145 13.0374 37.3145 13.6787C37.3145 14.3363 37.0622 14.8831 36.5576 15.3193C36.0563 15.7523 35.3467 15.9688 34.4287 15.9688C33.4912 15.9688 32.7539 15.7555 32.2168 15.3291C31.6797 14.8994 31.4111 14.3102 31.4111 13.5615H32.8467ZM38.418 15.7832V8.58594H39.9072V11.3301H42.7197V8.58594H44.2139V15.7832H42.7197V12.5703H39.9072V15.7832H38.418ZM47.1143 9.83594V11.4229H48.8818C49.1976 11.4229 49.4531 11.3643 49.6484 11.2471C49.847 11.1266 49.9463 10.915 49.9463 10.6123C49.9463 10.277 49.8161 10.0557 49.5557 9.94824C49.3311 9.87337 49.0446 9.83594 48.6963 9.83594H47.1143ZM47.1143 12.6143V14.5332H48.8818C49.1976 14.5332 49.4434 14.4909 49.6191 14.4062C49.9382 14.25 50.0977 13.9505 50.0977 13.5078C50.0977 13.1335 49.943 12.8763 49.6338 12.7363C49.4613 12.6582 49.2188 12.6175 48.9062 12.6143H47.1143ZM49.1748 8.58594C50.057 8.59896 50.682 8.85449 51.0498 9.35254C51.2712 9.65853 51.3818 10.0247 51.3818 10.4512C51.3818 10.8906 51.2712 11.2438 51.0498 11.5107C50.9261 11.6605 50.7438 11.7972 50.5029 11.9209C50.8708 12.0544 51.1475 12.266 51.333 12.5557C51.5218 12.8454 51.6162 13.1969 51.6162 13.6104C51.6162 14.0368 51.5088 14.4193 51.2939 14.7578C51.1572 14.9824 50.9863 15.1712 50.7812 15.3242C50.5501 15.5 50.2767 15.6204 49.9609 15.6855C49.6484 15.7507 49.3083 15.7832 48.9404 15.7832H45.6787V8.58594H49.1748ZM56.0645 14.709C56.6602 14.709 57.1322 14.4893 57.4805 14.0498C57.832 13.6104 58.0078 12.9854 58.0078 12.1748C58.0078 11.3675 57.832 10.7441 57.4805 10.3047C57.1322 9.86198 56.6602 9.64062 56.0645 9.64062C55.4688 9.64062 54.9935 9.86035 54.6387 10.2998C54.2839 10.7393 54.1064 11.3643 54.1064 12.1748C54.1064 12.9854 54.2839 13.6104 54.6387 14.0498C54.9935 14.4893 55.4688 14.709 56.0645 14.709ZM59.5117 12.1748C59.5117 13.4671 59.1488 14.4567 58.4229 15.1436C57.8792 15.7035 57.0931 15.9834 56.0645 15.9834C55.0358 15.9834 54.2497 15.7035 53.7061 15.1436C52.9769 14.4567 52.6123 13.4671 52.6123 12.1748C52.6123 10.8564 52.9769 9.86686 53.7061 9.20605C54.2497 8.64616 55.0358 8.36621 56.0645 8.36621C57.0931 8.36621 57.8792 8.64616 58.4229 9.20605C59.1488 9.86686 59.5117 10.8564 59.5117 12.1748ZM62.6318 13.0635H64.458L63.5596 10.2314L62.6318 13.0635ZM62.7246 8.58594H64.4238L66.9727 15.7832H65.3418L64.8779 14.3037H62.2266L61.7285 15.7832H60.1562L62.7246 8.58594ZM69.3945 9.83594V11.7695H71.0986C71.4372 11.7695 71.6911 11.7305 71.8604 11.6523C72.1598 11.5156 72.3096 11.2454 72.3096 10.8418C72.3096 10.4056 72.1647 10.1126 71.875 9.96289C71.7122 9.87826 71.4681 9.83594 71.1426 9.83594H69.3945ZM71.4551 8.58594C71.9596 8.5957 72.347 8.65755 72.6172 8.77148C72.8906 8.88542 73.1217 9.05306 73.3105 9.27441C73.4668 9.45671 73.5905 9.65853 73.6816 9.87988C73.7728 10.1012 73.8184 10.3535 73.8184 10.6367C73.8184 10.9785 73.7321 11.3154 73.5596 11.6475C73.387 11.9762 73.1022 12.209 72.7051 12.3457C73.0371 12.4792 73.2715 12.6696 73.4082 12.917C73.5482 13.1611 73.6182 13.5355 73.6182 14.04V14.5234C73.6182 14.8522 73.6312 15.0752 73.6572 15.1924C73.6963 15.3779 73.7874 15.5146 73.9307 15.6025V15.7832H72.2754C72.2298 15.6237 72.1973 15.4951 72.1777 15.3975C72.1387 15.1956 72.1175 14.9889 72.1143 14.7773L72.1045 14.1084C72.098 13.6494 72.0133 13.3434 71.8506 13.1904C71.6911 13.0374 71.39 12.9609 70.9473 12.9609H69.3945V15.7832H67.9248V8.58594H71.4551ZM76.5771 9.83594V14.5332H77.9639C78.6735 14.5332 79.1683 14.1833 79.4482 13.4834C79.6012 13.0993 79.6777 12.6419 79.6777 12.1113C79.6777 11.3789 79.5622 10.8174 79.3311 10.4268C79.1032 10.0329 78.6475 9.83594 77.9639 9.83594H76.5771ZM78.2178 8.58594C78.6637 8.59245 79.0348 8.64453 79.3311 8.74219C79.8356 8.9082 80.2441 9.21257 80.5566 9.65527C80.8073 10.0133 80.9782 10.4007 81.0693 10.8174C81.1605 11.234 81.2061 11.6312 81.2061 12.0088C81.2061 12.9658 81.014 13.7764 80.6299 14.4404C80.109 15.3356 79.305 15.7832 78.2178 15.7832H75.1172V8.58594H78.2178Z" fill="#2D3748"/>
</g>
<g clip-path="url(#clip3_195_6396)">
<rect x="41.5586" y="24.2832" width="0.00478125" height="0.00478125" fill="#C4C4C4"/>
</g>
</g>
<defs>
<clipPath id="clip0_195_6396">
<rect width="80.5" height="24.0048" fill="white" transform="translate(1.3125 0.283203)"/>
</clipPath>
<clipPath id="clip1_195_6396">
<rect width="80.5" height="15" fill="white" transform="translate(1.3125 4.7832)"/>
</clipPath>
<clipPath id="clip2_195_6396">
<rect width="11" height="11" fill="white" transform="translate(1.3125 6.7832)"/>
</clipPath>
<clipPath id="clip3_195_6396">
<rect width="24.0048" height="0.00476141" fill="white" transform="translate(29.5586 24.2832)"/>
</clipPath>
</defs>
</svg>
