<svg width="61" height="25" viewBox="0 0 61 25" fill="none" xmlns="http://www.w3.org/2000/svg">
<g clip-path="url(#clip0_195_6388)">
<g clip-path="url(#clip1_195_6388)">
<g clip-path="url(#clip2_195_6388)">
<path d="M8.4083 8.17066C7.99022 7.71928 7.40627 7.4707 6.76174 7.4707C6.11377 7.4707 5.52789 7.71777 5.11174 8.16637C4.69108 8.6199 4.48611 9.23629 4.53424 9.90187C4.62963 11.215 5.62887 12.2832 6.76174 12.2832C7.89461 12.2832 8.89213 11.2152 8.98902 9.9023C9.03779 9.24273 8.83154 8.62764 8.4083 8.17066Z" fill="#2D3748"/>
<path d="M10.5431 17.0957H2.98059C2.88161 17.097 2.78358 17.0762 2.69364 17.0348C2.6037 16.9935 2.52411 16.9326 2.46067 16.8566C2.32102 16.6896 2.26473 16.4617 2.30641 16.2312C2.48774 15.2253 3.05364 14.3803 3.94309 13.7871C4.73329 13.2605 5.73424 12.9707 6.76184 12.9707C7.78944 12.9707 8.79039 13.2607 9.58059 13.7871C10.47 14.3801 11.0359 15.2251 11.2173 16.231C11.2589 16.4615 11.2027 16.6894 11.063 16.8564C10.9996 16.9324 10.92 16.9933 10.8301 17.0347C10.7401 17.0761 10.6421 17.097 10.5431 17.0957V17.0957Z" fill="#2D3748"/>
</g>
<path d="M21.1465 10.876C21.1465 10.5016 21.0472 10.2347 20.8486 10.0752C20.6533 9.91569 20.3783 9.83594 20.0234 9.83594H18.6221V11.9551H20.0234C20.3783 11.9551 20.6533 11.8688 20.8486 11.6963C21.0472 11.5238 21.1465 11.2503 21.1465 10.876ZM22.6357 10.8662C22.6357 11.7158 22.4209 12.3164 21.9912 12.668C21.5615 13.0195 20.9479 13.1953 20.1504 13.1953H18.6221V15.7832H17.1279V8.58594H20.2627C20.9854 8.58594 21.5615 8.77148 21.9912 9.14258C22.4209 9.51367 22.6357 10.0882 22.6357 10.8662ZM25.2676 9.83594V11.7695H26.9717C27.3102 11.7695 27.5641 11.7305 27.7334 11.6523C28.0329 11.5156 28.1826 11.2454 28.1826 10.8418C28.1826 10.4056 28.0378 10.1126 27.748 9.96289C27.5853 9.87826 27.3411 9.83594 27.0156 9.83594H25.2676ZM27.3281 8.58594C27.8327 8.5957 28.2201 8.65755 28.4902 8.77148C28.7637 8.88542 28.9948 9.05306 29.1836 9.27441C29.3398 9.45671 29.4635 9.65853 29.5547 9.87988C29.6458 10.1012 29.6914 10.3535 29.6914 10.6367C29.6914 10.9785 29.6051 11.3154 29.4326 11.6475C29.2601 11.9762 28.9753 12.209 28.5781 12.3457C28.9102 12.4792 29.1445 12.6696 29.2812 12.917C29.4212 13.1611 29.4912 13.5355 29.4912 14.04V14.5234C29.4912 14.8522 29.5042 15.0752 29.5303 15.1924C29.5693 15.3779 29.6605 15.5146 29.8037 15.6025V15.7832H28.1484C28.1029 15.6237 28.0703 15.4951 28.0508 15.3975C28.0117 15.1956 27.9906 14.9889 27.9873 14.7773L27.9775 14.1084C27.971 13.6494 27.8864 13.3434 27.7236 13.1904C27.5641 13.0374 27.263 12.9609 26.8203 12.9609H25.2676V15.7832H23.7979V8.58594H27.3281ZM34.1738 14.709C34.7695 14.709 35.2415 14.4893 35.5898 14.0498C35.9414 13.6104 36.1172 12.9854 36.1172 12.1748C36.1172 11.3675 35.9414 10.7441 35.5898 10.3047C35.2415 9.86198 34.7695 9.64062 34.1738 9.64062C33.5781 9.64062 33.1029 9.86035 32.748 10.2998C32.3932 10.7393 32.2158 11.3643 32.2158 12.1748C32.2158 12.9854 32.3932 13.6104 32.748 14.0498C33.1029 14.4893 33.5781 14.709 34.1738 14.709ZM37.6211 12.1748C37.6211 13.4671 37.2581 14.4567 36.5322 15.1436C35.9886 15.7035 35.2025 15.9834 34.1738 15.9834C33.1452 15.9834 32.359 15.7035 31.8154 15.1436C31.0863 14.4567 30.7217 13.4671 30.7217 12.1748C30.7217 10.8564 31.0863 9.86686 31.8154 9.20605C32.359 8.64616 33.1452 8.36621 34.1738 8.36621C35.2025 8.36621 35.9886 8.64616 36.5322 9.20605C37.2581 9.86686 37.6211 10.8564 37.6211 12.1748ZM38.7734 8.5957H43.876V9.86035H40.2676V11.5156H43.4268V12.7656H40.2676V15.7832H38.7734V8.5957ZM46.2637 15.7832H44.7695V8.58594H46.2637V15.7832ZM47.6699 8.58594H49.1738V14.4893H52.7383V15.7832H47.6699V8.58594ZM59.1055 9.86035H55.2969V11.3887H58.793V12.6387H55.2969V14.4893H59.2812V15.7832H53.8271V8.58594H59.1055V9.86035Z" fill="#2D3748"/>
</g>
<g clip-path="url(#clip3_195_6388)">
<rect x="30.5078" y="24.2832" width="0.00478125" height="0.00478125" fill="#C4C4C4"/>
</g>
</g>
<defs>
<clipPath id="clip0_195_6388">
<rect width="58.5" height="24.0048" fill="white" transform="translate(1.26172 0.283203)"/>
</clipPath>
<clipPath id="clip1_195_6388">
<rect width="58.5" height="15" fill="white" transform="translate(1.26172 4.7832)"/>
</clipPath>
<clipPath id="clip2_195_6388">
<rect width="11" height="11" fill="white" transform="translate(1.26172 6.7832)"/>
</clipPath>
<clipPath id="clip3_195_6388">
<rect width="24.0048" height="0.00476141" fill="white" transform="translate(18.5078 24.2832)"/>
</clipPath>
</defs>
</svg>
