<svg width="62" height="25" viewBox="0 0 62 25" fill="none" xmlns="http://www.w3.org/2000/svg">
<g clip-path="url(#clip0_195_6380)">
<g clip-path="url(#clip1_195_6380)">
<path d="M8.21484 7.81445C5.7508 7.81445 3.74609 9.81916 3.74609 12.2832C3.74609 14.7472 5.7508 16.752 8.21484 16.752C10.6789 16.752 12.6836 14.7472 12.6836 12.2832C12.6836 9.81916 10.6789 7.81445 8.21484 7.81445ZM7.1359 10.3243C7.40811 10.0357 7.79117 9.87695 8.21484 9.87695C8.63852 9.87695 9.01814 10.0368 9.29142 10.3268C9.56836 10.6207 9.70307 11.0156 9.67127 11.4402C9.60768 12.2832 8.95455 12.9707 8.21484 12.9707C7.47514 12.9707 6.82072 12.2832 6.75842 11.4399C6.72684 11.012 6.86133 10.6158 7.1359 10.3243ZM8.21484 16.0645C7.71006 16.0648 7.21035 15.9638 6.74535 15.7673C6.28034 15.5709 5.85951 15.2831 5.50781 14.9211C5.70924 14.6338 5.96589 14.3896 6.26277 14.2026C6.81041 13.8516 7.5035 13.6582 8.21484 13.6582C8.92619 13.6582 9.61928 13.8516 10.1663 14.2026C10.4634 14.3895 10.7203 14.6337 10.9219 14.9211C10.5702 15.2832 10.1494 15.571 9.68437 15.7674C9.21936 15.9638 8.71963 16.0648 8.21484 16.0645V16.0645Z" fill="#2D3748"/>
<path d="M19.7441 13.5615C19.7897 13.8903 19.8792 14.1361 20.0127 14.2988C20.2568 14.5951 20.6751 14.7432 21.2676 14.7432C21.6224 14.7432 21.9105 14.7041 22.1318 14.626C22.5518 14.4762 22.7617 14.1979 22.7617 13.791C22.7617 13.5534 22.6576 13.3695 22.4492 13.2393C22.2409 13.1123 21.9137 13 21.4678 12.9023L20.7061 12.7314C19.9574 12.5622 19.4398 12.3783 19.1533 12.1797C18.6683 11.8477 18.4258 11.3285 18.4258 10.6221C18.4258 9.97754 18.6602 9.44206 19.1289 9.01562C19.5977 8.58919 20.2861 8.37598 21.1943 8.37598C21.9528 8.37598 22.599 8.5778 23.1328 8.98145C23.6699 9.38184 23.9515 9.96452 23.9775 10.7295H22.5322C22.5062 10.2965 22.3174 9.98893 21.9658 9.80664C21.7314 9.6862 21.4401 9.62598 21.0918 9.62598C20.7044 9.62598 20.3952 9.7041 20.1641 9.86035C19.9329 10.0166 19.8174 10.2347 19.8174 10.5146C19.8174 10.7718 19.9313 10.9639 20.1592 11.0908C20.3057 11.1755 20.6182 11.2747 21.0967 11.3887L22.3369 11.6865C22.8805 11.8167 23.2907 11.9909 23.5674 12.209C23.9971 12.5475 24.2119 13.0374 24.2119 13.6787C24.2119 14.3363 23.9596 14.8831 23.4551 15.3193C22.9538 15.7523 22.2441 15.9688 21.3262 15.9688C20.3887 15.9688 19.6514 15.7555 19.1143 15.3291C18.5771 14.8994 18.3086 14.3102 18.3086 13.5615H19.7441ZM26.7021 15.7832H25.208V8.58594H26.7021V15.7832ZM32.9473 10.832C32.8333 10.3405 32.555 9.99707 32.1123 9.80176C31.8649 9.69434 31.5898 9.64062 31.2871 9.64062C30.7077 9.64062 30.2308 9.86035 29.8564 10.2998C29.4854 10.736 29.2998 11.3936 29.2998 12.2725C29.2998 13.1579 29.5016 13.7845 29.9053 14.1523C30.3089 14.5202 30.7679 14.7041 31.2822 14.7041C31.7868 14.7041 32.2002 14.5592 32.5225 14.2695C32.8447 13.9766 33.0433 13.5941 33.1182 13.1221H31.4531V11.9209H34.4512V15.7832H33.4551L33.3037 14.8848C33.014 15.2266 32.7536 15.4674 32.5225 15.6074C32.1253 15.8516 31.637 15.9736 31.0576 15.9736C30.1038 15.9736 29.3226 15.6432 28.7139 14.9824C28.0791 14.3184 27.7617 13.4102 27.7617 12.2578C27.7617 11.0924 28.0824 10.1582 28.7236 9.45508C29.3649 8.75195 30.2129 8.40039 31.2676 8.40039C32.1823 8.40039 32.9163 8.63314 33.4697 9.09863C34.0264 9.56087 34.3454 10.1387 34.4268 10.832H32.9473ZM35.8672 8.58594H37.4443L40.3105 13.6104V8.58594H41.7119V15.7832H40.208L37.2686 10.6709V15.7832H35.8672V8.58594ZM45.9014 8.58594H47.4297V13.0098C47.4297 13.5046 47.4883 13.8659 47.6055 14.0938C47.7878 14.4974 48.1849 14.6992 48.7969 14.6992C49.4056 14.6992 49.8011 14.4974 49.9834 14.0938C50.1006 13.8659 50.1592 13.5046 50.1592 13.0098V8.58594H51.6875V13.0098C51.6875 13.7747 51.5687 14.3704 51.3311 14.7969C50.8883 15.5781 50.0436 15.9688 48.7969 15.9688C47.5501 15.9688 46.7038 15.5781 46.2578 14.7969C46.0202 14.3704 45.9014 13.7747 45.9014 13.0098V8.58594ZM57.1807 10.876C57.1807 10.5016 57.0814 10.2347 56.8828 10.0752C56.6875 9.91569 56.4124 9.83594 56.0576 9.83594H54.6562V11.9551H56.0576C56.4124 11.9551 56.6875 11.8688 56.8828 11.6963C57.0814 11.5238 57.1807 11.2503 57.1807 10.876ZM58.6699 10.8662C58.6699 11.7158 58.4551 12.3164 58.0254 12.668C57.5957 13.0195 56.9821 13.1953 56.1846 13.1953H54.6562V15.7832H53.1621V8.58594H56.2969C57.0195 8.58594 57.5957 8.77148 58.0254 9.14258C58.4551 9.51367 58.6699 10.0882 58.6699 10.8662Z" fill="#2D3748"/>
</g>
<g clip-path="url(#clip2_195_6380)">
<rect x="30.9609" y="24.2832" width="0.00478125" height="0.00478125" fill="#C4C4C4"/>
</g>
</g>
<defs>
<clipPath id="clip0_195_6380">
<rect width="56.5" height="24.0048" fill="white" transform="translate(2.71484 0.283203)"/>
</clipPath>
<clipPath id="clip1_195_6380">
<rect width="56.5" height="15" fill="white" transform="translate(2.71484 4.7832)"/>
</clipPath>
<clipPath id="clip2_195_6380">
<rect width="24.0048" height="0.00476141" fill="white" transform="translate(18.9609 24.2832)"/>
</clipPath>
</defs>
</svg>
