<svg width="61" height="25" viewBox="0 0 61 25" fill="none" xmlns="http://www.w3.org/2000/svg">
<g clip-path="url(#clip0_195_6372)">
<g clip-path="url(#clip1_195_6372)">
<path d="M8.85371 10.3747C8.85371 10.654 8.85371 10.9247 8.9418 11.1783C8.01582 12.2654 5.5709 15.1378 5.34316 15.357C5.2979 15.3976 5.26169 15.4473 5.23689 15.5028C5.21209 15.5583 5.19926 15.6184 5.19922 15.6792C5.19922 15.8619 5.31094 16.038 5.40547 16.1369C5.54727 16.2851 6.15312 16.8458 6.26484 16.7384C6.5957 16.4162 6.6623 16.3302 6.79766 16.197C7.00176 15.9972 6.77617 15.589 6.84707 15.4236C6.91797 15.2581 6.99316 15.2259 7.11562 15.2001C7.23809 15.1744 7.45508 15.2624 7.6248 15.2646C7.80312 15.2667 7.8998 15.1915 8.03301 15.0669C8.14043 14.9681 8.21777 14.8757 8.21992 14.7318C8.22422 14.5384 7.94492 14.2828 8.15332 14.0787C8.36172 13.8745 8.6625 14.2119 8.88379 14.1861C9.10508 14.1603 9.37363 13.8531 9.40156 13.722C9.42949 13.591 9.15019 13.2537 9.19316 13.0624C9.2082 12.998 9.33926 12.8476 9.43809 12.8261C9.53691 12.8046 9.97519 12.9744 10.074 12.9529C10.1943 12.9271 10.334 12.8003 10.4479 12.7294C10.7809 12.8734 11.0838 12.9314 11.4727 12.9314C12.9443 12.9314 14.1367 11.7841 14.1367 10.3704C14.1367 8.95678 12.9443 7.81445 11.4727 7.81445C10.001 7.81445 8.85371 8.96107 8.85371 10.3747ZM12.7617 9.87695C12.7617 10.0129 12.7214 10.1458 12.6459 10.2589C12.5703 10.372 12.4629 10.4601 12.3373 10.5121C12.2117 10.5642 12.0735 10.5778 11.9401 10.5512C11.8067 10.5247 11.6842 10.4592 11.5881 10.3631C11.4919 10.2669 11.4265 10.1444 11.3999 10.0111C11.3734 9.87772 11.387 9.73948 11.4391 9.61386C11.4911 9.48823 11.5792 9.38086 11.6923 9.30532C11.8053 9.22977 11.9382 9.18945 12.0742 9.18945C12.2566 9.18945 12.4314 9.26189 12.5604 9.39082C12.6893 9.51975 12.7617 9.69462 12.7617 9.87695Z" fill="#2D3748"/>
<path d="M21.1406 13.5615C21.1862 13.8903 21.2757 14.1361 21.4092 14.2988C21.6533 14.5951 22.0716 14.7432 22.6641 14.7432C23.0189 14.7432 23.307 14.7041 23.5283 14.626C23.9482 14.4762 24.1582 14.1979 24.1582 13.791C24.1582 13.5534 24.054 13.3695 23.8457 13.2393C23.6374 13.1123 23.3102 13 22.8643 12.9023L22.1025 12.7314C21.3538 12.5622 20.8363 12.3783 20.5498 12.1797C20.0648 11.8477 19.8223 11.3285 19.8223 10.6221C19.8223 9.97754 20.0566 9.44206 20.5254 9.01562C20.9941 8.58919 21.6826 8.37598 22.5908 8.37598C23.3493 8.37598 23.9954 8.5778 24.5293 8.98145C25.0664 9.38184 25.348 9.96452 25.374 10.7295H23.9287C23.9027 10.2965 23.7139 9.98893 23.3623 9.80664C23.1279 9.6862 22.8366 9.62598 22.4883 9.62598C22.1009 9.62598 21.7917 9.7041 21.5605 9.86035C21.3294 10.0166 21.2139 10.2347 21.2139 10.5146C21.2139 10.7718 21.3278 10.9639 21.5557 11.0908C21.7021 11.1755 22.0146 11.2747 22.4932 11.3887L23.7334 11.6865C24.277 11.8167 24.6872 11.9909 24.9639 12.209C25.3936 12.5475 25.6084 13.0374 25.6084 13.6787C25.6084 14.3363 25.3561 14.8831 24.8516 15.3193C24.3503 15.7523 23.6406 15.9688 22.7227 15.9688C21.7852 15.9688 21.0479 15.7555 20.5107 15.3291C19.9736 14.8994 19.7051 14.3102 19.7051 13.5615H21.1406ZM28.0986 15.7832H26.6045V8.58594H28.0986V15.7832ZM34.3438 10.832C34.2298 10.3405 33.9515 9.99707 33.5088 9.80176C33.2614 9.69434 32.9863 9.64062 32.6836 9.64062C32.1042 9.64062 31.6273 9.86035 31.2529 10.2998C30.8818 10.736 30.6963 11.3936 30.6963 12.2725C30.6963 13.1579 30.8981 13.7845 31.3018 14.1523C31.7054 14.5202 32.1644 14.7041 32.6787 14.7041C33.1833 14.7041 33.5967 14.5592 33.9189 14.2695C34.2412 13.9766 34.4398 13.5941 34.5146 13.1221H32.8496V11.9209H35.8477V15.7832H34.8516L34.7002 14.8848C34.4105 15.2266 34.1501 15.4674 33.9189 15.6074C33.5218 15.8516 33.0335 15.9736 32.4541 15.9736C31.5003 15.9736 30.7191 15.6432 30.1104 14.9824C29.4756 14.3184 29.1582 13.4102 29.1582 12.2578C29.1582 11.0924 29.4788 10.1582 30.1201 9.45508C30.7614 8.75195 31.6094 8.40039 32.6641 8.40039C33.5788 8.40039 34.3128 8.63314 34.8662 9.09863C35.4229 9.56087 35.7419 10.1387 35.8232 10.832H34.3438ZM37.2637 8.58594H38.8408L41.707 13.6104V8.58594H43.1084V15.7832H41.6045L38.665 10.6709V15.7832H37.2637V8.58594ZM48.6748 15.7832H47.1807V8.58594H48.6748V15.7832ZM50.0566 8.58594H51.6338L54.5 13.6104V8.58594H55.9014V15.7832H54.3975L51.458 10.6709V15.7832H50.0566V8.58594Z" fill="#2D3748"/>
</g>
<g clip-path="url(#clip2_195_6372)">
<rect x="30.4141" y="24.2832" width="0.00478125" height="0.00478125" fill="#C4C4C4"/>
</g>
</g>
<defs>
<clipPath id="clip0_195_6372">
<rect width="52.5" height="24.0048" fill="white" transform="translate(4.16797 0.283203)"/>
</clipPath>
<clipPath id="clip1_195_6372">
<rect width="52.5" height="15" fill="white" transform="translate(4.16797 4.7832)"/>
</clipPath>
<clipPath id="clip2_195_6372">
<rect width="24.0048" height="0.00476141" fill="white" transform="translate(18.4141 24.2832)"/>
</clipPath>
</defs>
</svg>
